<svg width="161" height="40" viewBox="0 0 161 40" fill="none" xmlns="http://www.w3.org/2000/svg">
<circle cx="10" cy="10" r="9.5" fill="#DFC3B0"/>
<path d="M19.5 10L141.5 9.99999" stroke="#DFC3B0" stroke-opacity="0.4" stroke-width="3" stroke-dasharray="3 3"/>
<circle cx="151" cy="10" r="7.5" fill="#1C0E05" stroke="#967A6A" stroke-width="4"/>
<g opacity="0.7">
<path d="M1.42725 35.5V34.2988L3.19238 34.0791V26.6963H1.40527V25.5464L5.18457 24.8359V34.0791L6.94971 34.2988V35.5H1.42725ZM7.98975 35.5V34.189L11.4614 30.439C11.8228 30.0288 12.106 29.6748 12.311 29.377C12.521 29.0742 12.6699 28.8008 12.7578 28.5566C12.8457 28.3076 12.8896 28.0586 12.8896 27.8096C12.8896 27.3652 12.7603 26.9917 12.5015 26.689C12.2476 26.3813 11.8765 26.2275 11.3882 26.2275C10.8706 26.2275 10.4727 26.3936 10.1943 26.7256C9.9209 27.0576 9.78418 27.519 9.78418 28.1099H7.85059L7.83594 28.0659C7.82129 27.4312 7.95801 26.8574 8.24609 26.3447C8.53418 25.832 8.94922 25.4268 9.49121 25.1289C10.0332 24.8311 10.6753 24.6821 11.4175 24.6821C12.1353 24.6821 12.7529 24.814 13.2705 25.0776C13.7881 25.3364 14.186 25.6978 14.4644 26.1616C14.7427 26.6206 14.8818 27.1553 14.8818 27.7656C14.8818 28.1807 14.8062 28.5786 14.6548 28.9595C14.5034 29.3354 14.269 29.7285 13.9517 30.1387C13.6343 30.5488 13.2314 31.0151 12.7432 31.5376L10.5239 33.9326L10.5386 33.9692H13.5122L13.6221 32.9146H15.1895V35.5H7.98975ZM16.4639 35.5V33.7056H18.4487V35.5H16.4639ZM16.4639 29.3696V27.5752H18.4487V29.3696H16.4639ZM23.3193 35.6538C22.2207 35.6538 21.3491 35.29 20.7046 34.5625C20.0649 33.8301 19.7451 32.7656 19.7451 31.3691V28.9741C19.7451 27.5776 20.0649 26.5132 20.7046 25.7808C21.3442 25.0483 22.2109 24.6821 23.3047 24.6821C24.3984 24.6821 25.2651 25.0483 25.9048 25.7808C26.5493 26.5132 26.8716 27.5776 26.8716 28.9741V31.3691C26.8716 32.7705 26.5518 33.835 25.9121 34.5625C25.2773 35.29 24.4131 35.6538 23.3193 35.6538ZM23.3193 34.123C23.832 34.123 24.2202 33.9204 24.4839 33.5151C24.7524 33.105 24.8867 32.4629 24.8867 31.5889V28.7397C24.8867 27.8755 24.75 27.2407 24.4766 26.8354C24.208 26.4253 23.8174 26.2202 23.3047 26.2202C22.792 26.2202 22.4014 26.4253 22.1328 26.8354C21.8643 27.2407 21.73 27.8755 21.73 28.7397V31.5889C21.73 32.4629 21.8643 33.105 22.1328 33.5151C22.4062 33.9204 22.8018 34.123 23.3193 34.123ZM31.8887 35.6538C30.79 35.6538 29.9185 35.29 29.2739 34.5625C28.6343 33.8301 28.3145 32.7656 28.3145 31.3691V28.9741C28.3145 27.5776 28.6343 26.5132 29.2739 25.7808C29.9136 25.0483 30.7803 24.6821 31.874 24.6821C32.9678 24.6821 33.8345 25.0483 34.4741 25.7808C35.1187 26.5132 35.4409 27.5776 35.4409 28.9741V31.3691C35.4409 32.7705 35.1211 33.835 34.4814 34.5625C33.8467 35.29 32.9824 35.6538 31.8887 35.6538ZM31.8887 34.123C32.4014 34.123 32.7896 33.9204 33.0532 33.5151C33.3218 33.105 33.4561 32.4629 33.4561 31.5889V28.7397C33.4561 27.8755 33.3193 27.2407 33.0459 26.8354C32.7773 26.4253 32.3867 26.2202 31.874 26.2202C31.3613 26.2202 30.9707 26.4253 30.7021 26.8354C30.4336 27.2407 30.2993 27.8755 30.2993 28.7397V31.5889C30.2993 32.4629 30.4336 33.105 30.7021 33.5151C30.9756 33.9204 31.3711 34.123 31.8887 34.123Z" fill="#F2F2F2"/>
<path d="M125.325 35.5V34.2988L127.09 34.0791V26.6963H125.303V25.5464L129.082 24.8359V34.0791L130.847 34.2988V35.5H125.325ZM134.993 35.5V34.2988L136.143 34.0791V32.9731H131.704L131.616 31.9697L136.106 24.8359H138.127V31.6108H139.395V32.9731H138.127V34.0791L139.277 34.2988V35.5H134.993ZM133.521 31.6108H136.143V27.5166L136.099 27.502L135.93 27.8242L133.521 31.6108ZM140.566 35.5V33.7056H142.551V35.5H140.566ZM140.566 29.3696V27.5752H142.551V29.3696H140.566ZM147.422 35.6538C146.323 35.6538 145.452 35.29 144.807 34.5625C144.167 33.8301 143.848 32.7656 143.848 31.3691V28.9741C143.848 27.5776 144.167 26.5132 144.807 25.7808C145.447 25.0483 146.313 24.6821 147.407 24.6821C148.501 24.6821 149.368 25.0483 150.007 25.7808C150.652 26.5132 150.974 27.5776 150.974 28.9741V31.3691C150.974 32.7705 150.654 33.835 150.015 34.5625C149.38 35.29 148.516 35.6538 147.422 35.6538ZM147.422 34.123C147.935 34.123 148.323 33.9204 148.586 33.5151C148.855 33.105 148.989 32.4629 148.989 31.5889V28.7397C148.989 27.8755 148.853 27.2407 148.579 26.8354C148.311 26.4253 147.92 26.2202 147.407 26.2202C146.895 26.2202 146.504 26.4253 146.235 26.8354C145.967 27.2407 145.833 27.8755 145.833 28.7397V31.5889C145.833 32.4629 145.967 33.105 146.235 33.5151C146.509 33.9204 146.904 34.123 147.422 34.123ZM155.991 35.6538C154.893 35.6538 154.021 35.29 153.376 34.5625C152.737 33.8301 152.417 32.7656 152.417 31.3691V28.9741C152.417 27.5776 152.737 26.5132 153.376 25.7808C154.016 25.0483 154.883 24.6821 155.977 24.6821C157.07 24.6821 157.937 25.0483 158.577 25.7808C159.221 26.5132 159.543 27.5776 159.543 28.9741V31.3691C159.543 32.7705 159.224 33.835 158.584 34.5625C157.949 35.29 157.085 35.6538 155.991 35.6538ZM155.991 34.123C156.504 34.123 156.892 33.9204 157.156 33.5151C157.424 33.105 157.559 32.4629 157.559 31.5889V28.7397C157.559 27.8755 157.422 27.2407 157.148 26.8354C156.88 26.4253 156.489 26.2202 155.977 26.2202C155.464 26.2202 155.073 26.4253 154.805 26.8354C154.536 27.2407 154.402 27.8755 154.402 28.7397V31.5889C154.402 32.4629 154.536 33.105 154.805 33.5151C155.078 33.9204 155.474 34.123 155.991 34.123Z" fill="#F2F2F2"/>
</g>
</svg>
