<svg width="10" height="12" viewBox="0 0 10 12" fill="none" xmlns="http://www.w3.org/2000/svg">
<path id="Vector" d="M2.75 9.3H7.25V8.2H2.75V9.3ZM2.75 7.1H7.25V6H2.75V7.1ZM1.625 11.5C1.31562 11.5 1.05078 11.3923 0.830469 11.1769C0.610156 10.9615 0.5 10.7025 0.5 10.4V1.6C0.5 1.2975 0.610156 1.03854 0.830469 0.823125C1.05078 0.607708 1.31562 0.5 1.625 0.5H6.125L9.5 3.8V10.4C9.5 10.7025 9.38984 10.9615 9.16953 11.1769C8.94922 11.3923 8.68437 11.5 8.375 11.5H1.625ZM5.5625 4.35V1.6H1.625V10.4H8.375V4.35H5.5625Z" fill="#F2F2F2"/>
</svg>
